<?xml version="1.0" standalone="no"?>
<!DOCTYPE svg PUBLIC "-//W3C//DTD SVG 20010904//EN"
 "http://www.w3.org/TR/2001/REC-SVG-20010904/DTD/svg10.dtd">
<svg version="1.0" xmlns="http://www.w3.org/2000/svg"
 width="700.000000pt" height="700.000000pt" viewBox="0 0 700.000000 700.000000"
 preserveAspectRatio="xMidYMid meet">
<metadata>
Created by potrace 1.11, written by Peter Selinger 2001-2013
</metadata>
<g transform="translate(0.000000,700.000000) scale(0.100000,-0.100000)"
fill="#000000" stroke="none">
<path d="M0 3500 l0 -3500 3500 0 3500 0 0 3500 0 3500 -3500 0 -3500 0 0
-3500z m1987 2557 c6 -6 1 -24 -82 -337 -31 -118 -59 -222 -60 -230 -2 -8 -40
-152 -85 -320 -44 -168 -92 -348 -106 -400 -14 -52 -32 -118 -40 -146 -8 -28
-16 -60 -18 -70 -2 -11 -27 -104 -54 -209 -180 -679 -240 -906 -316 -1195
-108 -410 -125 -472 -187 -705 -28 -104 -52 -197 -54 -205 -22 -92 -39 -150
-44 -150 -4 0 -6 3748 -2 3942 1 24 5 27 44 30 72 5 998 0 1004 -5z m4068 1
c3 -3 8 -909 6 -1024 l-1 -31 -52 14 c-29 7 -67 18 -84 23 -17 6 -40 12 -50
14 -15 3 -155 40 -229 60 -5 2 -23 6 -40 11 -45 11 -355 93 -665 175 -151 40
-367 97 -480 126 -113 30 -221 59 -240 64 -39 12 -655 174 -1045 276 -137 36
-272 72 -300 79 -248 69 -769 205 -789 206 -15 1 -12 3 8 8 32 6 3954 6 3961
-1z m-3336 -1019 c64 -17 174 -46 245 -64 70 -19 130 -36 133 -39 3 -2 -20
-47 -50 -98 -30 -51 -115 -199 -190 -328 -74 -129 -164 -285 -199 -346 -36
-61 -68 -117 -71 -125 -4 -8 -16 -27 -26 -44 -10 -16 -68 -115 -128 -220 -299
-519 -348 -603 -350 -601 -1 1 9 42 23 91 13 50 27 103 30 119 2 16 7 33 10
38 3 4 7 16 9 26 3 17 18 76 141 537 30 116 57 219 60 230 2 10 20 78 40 149
20 72 37 137 39 146 3 15 25 99 104 399 23 84 41 155 41 157 0 8 26 3 139 -27z
m3342 -2104 c0 -1093 -2 -1989 -5 -1992 -4 -4 -907 -7 -1032 -4 -19 1 -18 9
33 204 30 111 76 285 103 387 26 102 101 383 165 625 64 242 125 472 135 510
33 125 78 297 111 420 38 142 87 330 239 905 61 234 129 490 151 570 22 80 52
195 67 256 15 62 28 111 30 109 2 -2 3 -897 3 -1990z m-2794 1959 c32 -8 117
-31 190 -50 72 -18 214 -56 315 -83 200 -53 877 -232 893 -236 6 -1 24 -5 40
-10 17 -4 104 -27 194 -51 90 -24 166 -46 168 -48 3 -3 -12 -67 -32 -143 -86
-328 -97 -368 -100 -371 -2 -2 -52 25 -112 60 -59 35 -115 67 -123 71 -8 4
-33 18 -55 31 -45 26 -479 277 -528 305 -53 31 -191 111 -207 121 -8 5 -60 35
-115 66 -55 32 -154 89 -220 127 -66 38 -140 81 -165 95 -64 35 -214 123 -219
128 -9 8 19 4 76 -12z m323 -1034 c68 -40 140 -82 160 -93 51 -28 224 -130
229 -134 5 -4 -22 -55 -77 -151 -21 -34 -83 -142 -139 -240 -57 -97 -111 -189
-121 -204 l-18 -27 -34 21 c-50 30 -269 158 -305 178 -34 18 -218 125 -253
147 l-23 14 24 42 c14 23 35 61 48 83 13 23 83 143 154 267 l130 225 50 -28
c28 -15 106 -60 175 -100z m1294 -160 c-19 -69 -36 -134 -38 -145 -2 -12 -24
-97 -49 -190 -63 -236 -92 -346 -138 -520 -55 -209 -105 -398 -146 -549 -19
-72 -36 -138 -38 -147 -7 -33 -56 -213 -59 -217 -4 -3 -93 20 -411 103 -55 15
-101 28 -103 30 -2 1 7 20 19 41 22 39 105 184 124 215 6 10 26 46 46 81 20
34 53 92 74 128 20 36 49 85 63 110 13 25 31 52 38 61 8 8 14 19 14 22 0 7
283 500 327 569 12 21 23 40 23 43 0 3 19 38 43 78 24 39 63 106 87 147 24 41
53 91 64 110 31 51 65 112 78 138 6 12 12 21 14 19 1 -1 -13 -58 -32 -127z
m-2473 -795 c178 -104 569 -330 869 -503 300 -173 547 -317 550 -320 3 -3 -3
-2 -13 1 -10 4 -189 52 -398 107 -208 55 -421 111 -472 125 -50 13 -135 35
-187 49 -52 13 -198 52 -325 85 -126 34 -290 77 -364 96 -74 20 -137 38 -139
40 -4 4 56 241 126 498 2 10 10 16 16 14 7 -3 158 -89 337 -192z m-1321 -949
c119 -32 197 -52 635 -167 105 -28 213 -57 240 -65 28 -8 154 -41 280 -74 127
-33 289 -76 360 -95 72 -19 140 -37 150 -39 11 -3 79 -20 150 -40 169 -45 439
-117 495 -130 21 -6 230 -61 320 -86 41 -11 84 -23 95 -25 11 -3 173 -45 360
-95 317 -84 599 -158 689 -181 21 -6 36 -13 33 -16 -7 -7 -3947 -7 -3954 0 -4
5 -8 996 -4 1040 1 12 21 9 151 -27z"/>
</g>
</svg>
