<svg xmlns="http://www.w3.org/2000/svg" xmlns:xlink="http://www.w3.org/1999/xlink" viewBox="0 0 155.9 155.9">
	<defs>
		<style>
			.cls-1 {
				fill: url(#Unbenannter_Verlauf_38);
			}

			.cls-2 {
				fill: url(#Unbenannter_Verlauf_38-2);
			}

			.cls-3 {
				fill: url(#Unbenannter_Verlauf_38-3);
			}
		</style>
		<linearGradient id="Unbenannter_Verlauf_38" y1="77.95" x2="155.9" y2="77.95" gradientUnits="userSpaceOnUse">
			<stop offset="0" stop-color="#ca4559" />
			<stop offset="1" stop-color="#c02e70" />
		</linearGradient>
		<linearGradient id="Unbenannter_Verlauf_38-2" x1="20.56" y1="77.95" x2="135.34" y2="77.95"
			xlink:href="#Unbenannter_Verlauf_38" />
		<linearGradient id="Unbenannter_Verlauf_38-3" x1="45.67" y1="77.95" x2="110.23" y2="77.95"
			xlink:href="#Unbenannter_Verlauf_38" />
	</defs>
	<g id="Ebene_2" data-name="Ebene 2">
		<g id="Ebene_1-2" data-name="Ebene 1">
			<path class="cls-1" d="M135,20.89V135H20.89V20.89H135M155.9,0H0V155.9H155.9V0Z" />
			<path class="cls-2"
				d="M57.53,42.89,113,57.53,98.37,113,42.89,98.37,57.53,42.89m-13-22.33-24,90.81,90.81,24,24-90.81-90.81-24Z" />
			<path class="cls-3"
				d="M75,67.07l13.79,8-8,13.79-13.8-8,8-13.8M69.3,45.67,45.67,86.6,86.6,110.23,110.23,69.3,69.3,45.67Z" />
		</g>
	</g>
</svg>